<?xml version="1.0" encoding="UTF-8"?>
<svg id="Layer_1" data-name="Layer 1" xmlns="http://www.w3.org/2000/svg" viewBox="0 0 448.71 474.89">
  <defs>
    <style>
      .cls-1 {
        fill: #fff;
      }

      .cls-2 {
        fill: #4c3f19;
      }
    </style>
  </defs>
  <path class="cls-2" d="m339.83,55.98L404.76,4.93c14.32-11.26,35.41-2.1,36.96,16.05l6.91,80.91c1.62,18.98-19.31,31.61-35.23,21.14-16.11-10.6-37.27-20.83-63.84-26.6-19.12-4.15-25.09-28.35-9.71-40.44Z"/>
  <circle class="cls-1" cx="390.54" cy="57.24" r="11.06"/>
  <path class="cls-2" d="m364.87,133.68c-8.13,16.26-17.4,31.95-27.7,46.92-2.54,3.69-5.14,7.34-7.8,10.94-1.35,1.83-2.72,3.64-4.1,5.45-.32.41-.63.82-.95,1.24.51-.66.09-.12-.01.01-.2.26-.4.51-.6.77-.72.92-1.44,1.84-2.17,2.75-5.61,7.07-11.46,13.95-17.54,20.62-12.24,13.45-25.38,26.08-39.3,37.77-3.43,2.88-6.91,5.71-10.44,8.47-.46.36-.92.72-1.38,1.08-.21.16-.41.32-.62.48.14-.11.67-.51-.01.01-.93.71-1.86,1.42-2.79,2.13-1.81,1.37-3.64,2.73-5.47,4.07-7.29,5.32-14.76,10.4-22.39,15.21-15.37,9.7-31.41,18.36-47.97,25.84-2.01.91-4.03,1.8-6.06,2.67-2.17.94-2.82,4.29-1.61,6.16,1.45,2.25,3.84,2.62,6.16,1.61,16.75-7.23,32.99-15.64,48.57-25.13,15.8-9.62,30.91-20.36,45.27-32.02,14.11-11.46,27.46-23.87,39.91-37.12,12.67-13.48,24.41-27.83,35.16-42.88s20.17-30.43,28.6-46.61c1.02-1.96,2.02-3.93,3.01-5.9,1.05-2.1.63-4.97-1.61-6.16-2.04-1.08-5.03-.63-6.16,1.61h0Z"/>
  <path class="cls-2" d="m306.57,157.12c5.79.86,11.51,2.16,17.11,3.88,2.83.87,5.63,1.85,8.38,2.92.61.24,1.22.48,1.83.73.11.05,1.32.56.38.16.24.1.48.21.73.31,1.45.63,2.89,1.28,4.31,1.97,5.22,2.51,10.26,5.4,15.06,8.63,1.15.77,2.28,1.56,3.4,2.37.59.42,1.17.85,1.75,1.29.21.16.42.32.63.48.41.31.42.32.03.02.21.16.42.32.62.49,2.27,1.79,4.48,3.66,6.62,5.62,4.86,4.44,9.34,9.28,13.38,14.47,1.45,1.87,4.86,1.64,6.36,0,1.82-1.98,1.55-4.37,0-6.36-14.9-19.09-35.7-33.38-58.65-40.98-6.37-2.11-12.92-3.67-19.56-4.66-2.32-.35-4.95.58-5.54,3.14-.49,2.14.65,5.16,3.14,5.54h0Z"/>
  <path class="cls-2" d="m268.11,197.12c3.35.92,6.66,1.96,9.93,3.14,1.57.56,3.14,1.16,4.69,1.78.42.17.84.34,1.25.51.18.07.36.15.53.22.06.03.66.28.17.07-.43-.18.7.3.88.38.41.18.82.36,1.24.55,6.28,2.81,12.36,6.08,18.17,9.77,2.93,1.86,5.8,3.83,8.59,5.9.36.27.72.54,1.08.81.14.11.97.74.62.47s.47.37.61.48c.4.32.81.64,1.21.96,1.35,1.09,2.69,2.2,4,3.34,5.2,4.51,10.08,9.38,14.58,14.59,1.26,1.46,2.49,2.95,3.69,4.46.28.35.56.71.83,1.06-.56-.71.32.42.47.62.58.77,1.16,1.55,1.72,2.33,2.3,3.18,4.46,6.46,6.48,9.82,1.21,2.02,4.1,2.94,6.16,1.61s2.91-4,1.61-6.16c-7.38-12.28-16.64-23.48-27.3-33.04s-22.71-17.66-35.7-23.75c-7.46-3.5-15.19-6.4-23.13-8.59-2.27-.62-5,.77-5.54,3.14s.71,4.87,3.14,5.54h0Z"/>
  <path class="cls-2" d="m221.52,239.62c1.64.56,3.27,1.14,4.89,1.75.78.3,1.55.6,2.33.91.36.14.71.29,1.07.43.24.1.47.2.71.29-.39-.16-.42-.18-.01,0,3.18,1.37,6.31,2.84,9.38,4.44,6.08,3.16,11.94,6.77,17.5,10.78.68.49,1.35.98,2.02,1.48.36.27.72.54,1.07.81.15.12.31.23.46.35-.34-.26-.33-.26,0,0,1.36,1.07,2.71,2.16,4.03,3.27,2.65,2.23,5.22,4.55,7.7,6.97s4.88,4.92,7.18,7.5c1.15,1.29,2.28,2.61,3.38,3.94.49.59.97,1.19,1.45,1.79.28.35.56.7.83,1.06.12.15.24.3.35.45-.26-.33-.25-.33,0,0,4.73,6.23,8.96,12.82,12.59,19.75,1.1,2.09,4.18,2.89,6.16,1.61,2.13-1.37,2.79-3.92,1.61-6.16-6.66-12.7-15.32-24.39-25.42-34.56s-21.74-18.93-34.34-25.75c-7.21-3.9-14.78-7.19-22.55-9.82-2.23-.76-5.02.87-5.54,3.14-.57,2.49.75,4.73,3.14,5.54h0Z"/>
  <path class="cls-2" d="m189.42,285.13c.79.33.14.06-.01,0,.23.1.47.2.7.3.47.2.93.41,1.4.63,1.04.48,2.08.98,3.1,1.5,1.82.93,3.61,1.92,5.35,2.98,1.86,1.12,3.67,2.31,5.44,3.57.83.59,1.65,1.2,2.47,1.82-.75-.57.42.34.6.48.4.32.8.64,1.19.97,3.29,2.73,6.39,5.7,9.26,8.87,1.41,1.56,2.76,3.18,4.07,4.84-.58-.74.32.43.46.61.31.41.61.82.91,1.24.63.88,1.25,1.77,1.85,2.68,2.65,3.99,4.96,8.2,6.91,12.57.96,2.16,4.27,2.83,6.16,1.61,2.23-1.44,2.64-3.85,1.61-6.16-7.34-16.44-19.85-30.5-35.07-40.06-4.45-2.8-9.14-5.11-13.99-7.11-2.18-.9-5.04.97-5.54,3.14-.6,2.62.81,4.57,3.14,5.54h0Z"/>
  <path class="cls-2" d="m155.09,331.5c.64-.9.26-1.68-.84-1.75L.95,321c-1.1-.06-1.27.41-.38,1.06l75.41,54.68c.89.65,1.4,2.05,1.13,3.11l-23.74,94.14c-.27,1.07.03,1.2.67.31l101.05-142.79Z"/>
</svg>