<?xml version="1.0" encoding="UTF-8"?>
<svg id="Layer_1" data-name="Layer 1" xmlns="http://www.w3.org/2000/svg" viewBox="0 0 424.2 480.27">
  <defs>
    <style>
      .cls-1 {
        fill: #ffc524;
      }

      .cls-2 {
        fill: #ffde8d;
      }
    </style>
  </defs>
  <path class="cls-1" d="m272.49.23c-1.57-.52-3.92-.13-5.24.87L2.39,202.33c-1.31,1-2.39,3.16-2.39,4.81v270.99c0,1.65,1.27,2.53,2.81,1.96l396.34-147.06c1.55-.57,2.92-2.39,3.05-4.03l21.99-275.29c.13-1.64-1.04-3.42-2.61-3.94L272.49.23Z"/>
  <circle class="cls-2" cx="68.69" cy="285.93" r="34.65"/>
  <circle class="cls-2" cx="293.38" cy="216.01" r="40.88"/>
  <circle class="cls-2" cx="166.36" cy="366.12" r="17.48"/>
  <circle class="cls-2" cx="366.72" cy="135.81" r="10.61"/>
  <path class="cls-2" d="m277.44,40.01c-.86-.11.44.06.69.1.49.07.98.15,1.47.22,1.12.18,2.23.37,3.34.58,2.08.39,4.15.84,6.21,1.35,4.04.99,8.04,2.2,11.95,3.62,1,.36,1.99.73,2.97,1.12.46.18.92.36,1.38.55.2.08.39.16.59.24-.03-.01,1.09.46.63.26-.47-.2.33.15.44.19.19.08.39.17.58.25.45.2.9.4,1.35.61,1.03.47,2.05.95,3.06,1.45,3.74,1.83,7.38,3.86,10.91,6.08,2.03,1.28,4.03,2.62,5.98,4.01.92.66,1.82,1.33,2.72,2.01.7.53.24.19.1.07.28.22.56.44.83.66.5.4.99.8,1.48,1.2l3.18-7.68c-22.56,2.15-45.12,4.29-67.68,6.44-6.36.61-12.73,1.21-19.09,1.82-3.98.38-5.81,4.6-3.18,7.68,5.19,6.09,13.27,8.1,20.85,9.29,3.51.55,7.05.95,10.49,1.91.77.21,1.54.45,2.3.72.43.15.86.31,1.29.48.16.06.32.13.48.19.52.2-.75-.36.02.02,1.52.74,2.94,1.54,4.34,2.47.23.15.68.32-.14-.12.18.09.34.28.5.41.36.31.71.63,1.05.97.29.3.57.61.85.92.12.14.44.69.13.15-.35-.6.14.24.18.3.23.34.43.7.63,1.06.05.09.29.5.27.55.04-.09-.32-.88-.09-.22.31.91.55,1.82.68,2.78l3.14-5.54c-17.81,2.56-35.62,5.11-53.43,7.67-4.37.63-8.76,1.19-13.12,1.89s-7.99,2.87-9.35,7.05c-1.06,3.26.11,6.6,1.51,9.54.61,1.28,1.31,2.51,1.96,3.77.32.62.62,1.24.92,1.87.35.72-.27-.76.1.23.12.34.25.67.35,1.02s.18.68.27,1.02c0,.03.07.43.09.44-.05,0-.06-.96-.07-.47,0,.34.04.68.03,1.02,0,.14-.03.29-.03.43,0,.5.27-1.07.01-.24-.08.25-.15.51-.21.76-.2.72.46-.74.05-.15-.12.17-.7.91-.18.38s-.15.16-.29.29c-.12.12-.92.77-.3.31s-.25.15-.39.23c-.22.14-.46.26-.69.38-.12.06-.25.11-.36.17-.45.26,1.07-.38.19-.09-.54.18-1.07.36-1.62.5-.33.08-.67.16-1,.22-.15.03-.29.05-.44.08-.83.17.73-.06.15-.01-1.4.12-2.78.21-4.18.17-.67-.02-1.35-.07-2.02-.13-.31-.03-.61-.07-.91-.1-.51-.05.44.05.45.06,0-.03-.69-.11-.74-.12-4.16-.71-8.28-1.67-12.41-2.51-4.37-.89-8.74-1.78-13.11-2.67s-8.62-1.91-12.97-2.54c-4.61-.67-9.24-.79-13.7.82-3.88,1.4-7.34,3.55-10.7,5.9-14.13,9.88-27.79,20.47-40.93,31.64-1.62,1.38-3.24,2.77-4.85,4.17-1.78,1.55-1.71,4.8,0,6.36,1.9,1.74,4.46,1.65,6.36,0,6.37-5.54,12.87-10.94,19.49-16.18.8-.64,1.61-1.27,2.42-1.9.44-.34.87-.68,1.31-1.02.16-.13,1.15-.89.77-.6,1.69-1.3,3.38-2.59,5.08-3.88,3.4-2.56,6.84-5.09,10.3-7.57,3.19-2.29,6.37-4.68,9.79-6.62.8-.46,1.62-.88,2.46-1.27.19-.09.38-.18.58-.26-.71.29-.03.02.1-.02.47-.16.93-.33,1.4-.47s.95-.26,1.43-.37c.17-.04,1.19-.21.58-.13,1.1-.14,2.22-.15,3.32-.11.48.02.95.05,1.43.09.32.03.63.06.95.1-.1-.01-.54-.08,0,0,1.11.15,2.22.36,3.32.58,2.17.43,4.33.88,6.5,1.32,4.29.87,8.58,1.75,12.86,2.62s8.74,1.78,13.11,2.67c3.21.65,6.44,1.2,9.72,1.15,5.75-.08,13.05-1.75,15.69-7.55,1.48-3.25,1.5-6.81.26-10.16-1.08-2.9-2.69-5.5-4-8.29-.06-.13-.12-.27-.19-.41-.36-.77.14.24.11.27.04-.05-.26-.7-.29-.79-.1-.3-.17-.6-.25-.9-.25-.93-.05.73,0,.07.01-.22.1-1.2-.05-.37s.09-.07.09-.23c0-.37-.15.44-.23.5.06-.05.14-.26.18-.34.09-.18.46-.58.02-.09-.55.61.09-.1.14-.11.3-.05,0-.01-.2.11.16-.1.31-.2.47-.29.13-.07.84-.33.3-.16s.1-.01.17-.03c.87-.22,1.73-.41,2.62-.54,2.18-.33,4.37-.63,6.56-.94,17.64-2.53,35.29-5.06,52.93-7.6,2.23-.32,4.45-.64,6.68-.96.99-.14,2.24-1.21,2.69-2.07.61-1.15.63-2.2.45-3.47-1.11-8.06-8.29-13.11-15.34-15.83s-14.47-2.62-21.58-4.6c-.99-.28-1.97-.59-2.93-.96-.14-.05-.85-.33-.29-.11.6.24-.32-.15-.44-.2-.43-.2-.85-.41-1.26-.64-.46-.25-.91-.52-1.36-.81-.24-.16-1.41-1.14-.65-.44-.79-.74-1.58-1.43-2.28-2.26l-3.18,7.68c22.56-2.15,45.12-4.29,67.68-6.44,6.36-.61,12.73-1.21,19.09-1.82,1.84-.17,3.36-.99,4.11-2.77.64-1.52.45-3.79-.93-4.92-13.95-11.42-30.24-19.82-47.72-24.32-5.05-1.3-10.16-2.21-15.33-2.88-2.34-.31-4.6,2.29-4.5,4.5.12,2.7,1.99,4.17,4.5,4.5h0Z"/>
</svg>