<?xml version="1.0" encoding="UTF-8"?>
<svg id="Layer_1" data-name="Layer 1" xmlns="http://www.w3.org/2000/svg" viewBox="0 0 384.12 452.94">
  <defs>
    <style>
      .cls-1 {
        fill: #ffd98d;
      }

      .cls-2 {
        fill: #916a14;
      }

      .cls-3 {
        fill: #ffebc0;
        stroke: #ffebc0;
        stroke-miterlimit: 10;
        stroke-width: 4px;
      }
    </style>
  </defs>
  <path class="cls-3" d="m293.96,2.55S-49.66,288.59,8.67,394.02c58.32,105.43,328.28,63.73,366.03-119.56C412.45,91.18,293.96,2.55,293.96,2.55Z"/>
  <path class="cls-1" d="m33.38,368.22c-.14-4.25-.03-8.49.34-12.73.09-1,.19-2,.31-2.99.06-.53.13-1.06.2-1.59-.02.18-.13.89,0,0,.05-.33.1-.66.15-.99.31-2.04.68-4.07,1.1-6.09.86-4.11,1.94-8.17,3.23-12.17.65-2.04,1.36-4.06,2.11-6.06.35-.94.72-1.88,1.09-2.81.2-.5.4-1,.61-1.49.02-.05.28-.67.08-.21-.22.52.21-.48.25-.58,3.39-7.87,7.47-15.43,12.03-22.68,2.35-3.73,4.82-7.38,7.4-10.96,1.26-1.74,2.54-3.46,3.84-5.16.07-.09.59-.77.28-.37-.28.37.14-.17.16-.2.34-.44.68-.87,1.02-1.31.69-.87,1.38-1.74,2.08-2.6,11.07-13.65,23.56-25.99,36.38-37.98,13.1-12.24,26.52-24.14,39.26-36.76,12.75-12.63,24.82-26.04,34.96-40.87,1.23-1.8,2.43-3.63,3.61-5.47,1.27-1.99.48-5.05-1.61-6.16-2.22-1.18-4.81-.51-6.16,1.61-2.42,3.8-4.97,7.52-7.63,11.15-.62.85-1.25,1.69-1.89,2.53-.3.39-.6.78-.89,1.17.45-.59.01-.01-.07.09-.26.33-.52.66-.78.99-1.34,1.71-2.71,3.4-4.11,5.07-5.71,6.86-11.78,13.42-18.05,19.78-12.64,12.81-26.07,24.8-39.26,37.02-12.95,12-25.7,24.25-37.07,37.77-11.37,13.52-21.63,28.15-29.18,44.16-7.46,15.81-12.31,32.83-12.8,50.37-.06,2.17-.05,4.33.02,6.5.08,2.35,2.01,4.61,4.5,4.5s4.58-1.98,4.5-4.5h0Z"/>
  <path class="cls-1" d="m62.61,412.61c13.92,11.41,30.98,18.24,48.72,20.86,19.44,2.88,39.09,1.04,58.19-3.27,17.65-3.99,35.05-9.72,51.76-16.65,15.46-6.41,30.47-14.01,44.13-23.73s25.69-21.23,35.12-35.01c1.13-1.66,2.22-3.34,3.27-5.05,1.23-2.01.5-5.04-1.61-6.16s-4.84-.53-6.16,1.61c-2.09,3.41-4.35,6.71-6.77,9.9-.04.05-.43.56-.12.16.34-.44-.16.2-.24.3-.28.35-.56.7-.84,1.05-.64.8-1.29,1.59-1.96,2.37-1.28,1.51-2.6,3-3.95,4.45-2.7,2.9-5.54,5.68-8.49,8.34-1.43,1.29-2.89,2.55-4.37,3.78-.74.62-1.49,1.23-2.24,1.83-.4.32-.81.64-1.21.96-.15.12-.3.24-.46.36-.41.32.51-.39-.16.12-12.84,9.69-26.91,17.53-41.61,24.01-.9.4-1.81.79-2.72,1.18-.25.11-1.36.58-.56.24-.55.23-1.09.46-1.64.68-1.88.78-3.77,1.54-5.67,2.28-3.72,1.45-7.48,2.83-11.25,4.15-8.74,3.05-17.6,5.83-26.56,8.17-4.68,1.22-9.39,2.32-14.14,3.25-2.41.47-4.82.9-7.25,1.28-1.17.18-2.34.36-3.52.52-.53.07-.08.01.02,0-.31.04-.63.08-.94.12-.71.09-1.41.17-2.12.25-9.19,1.03-18.49,1.3-27.71.49-.97-.09-1.94-.18-2.9-.29-.55-.06-1.1-.13-1.66-.2-.16-.02-.89-.12-.04,0-.28-.04-.55-.08-.83-.12-2.13-.31-4.25-.67-6.36-1.1-4.14-.84-8.24-1.91-12.25-3.23-2.03-.67-4.04-1.4-6.02-2.2-.26-.1-.51-.21-.77-.31-.66-.27.59.26-.07-.03-.44-.19-.88-.38-1.32-.58-1-.45-2-.92-2.99-1.4-3.82-1.88-7.51-4.03-11.02-6.46-.79-.55-1.57-1.11-2.35-1.69-.22-.17-.44-.33-.66-.5.15.11.61.49-.07-.06-.43-.34-.86-.69-1.29-1.04-1.82-1.49-4.61-1.91-6.36,0-1.51,1.65-1.94,4.77,0,6.36h0Z"/>
  <path class="cls-1" d="m293.18,21.65c-12.05,28.11-25.91,55.44-41.47,81.77-15.47,26.17-32.58,51.41-51.29,75.37s-38.68,46.29-60.04,67.6c-20.05,20-40.85,39.31-59.49,60.66-18.34,21-34.53,44.07-44.42,70.3-1.21,3.21-2.31,6.46-3.32,9.75-1.7,5.55,6.98,7.92,8.68,2.39,7.97-25.96,22.84-49.19,40.18-69.95,18.04-21.59,38.55-40.93,58.55-60.66,21.31-21.02,41.61-42.95,60.35-66.31s36.88-49,52.88-75.15,30.16-53.01,42.6-80.83c1.54-3.45,3.06-6.92,4.55-10.4.96-2.23.66-4.82-1.61-6.16-1.9-1.11-5.19-.63-6.16,1.61h0Z"/>
  <ellipse class="cls-2" cx="37.37" cy="396.98" rx="19.76" ry="37.88" transform="translate(-269.76 142.7) rotate(-45)"/>
</svg>