<?xml version="1.0" encoding="UTF-8"?>
<svg id="Layer_1" data-name="Layer 1" xmlns="http://www.w3.org/2000/svg" viewBox="0 0 309.46 446.77">
  <defs>
    <style>
      .cls-1 {
        fill: #ffca3c;
      }
    </style>
  </defs>
  <path class="cls-1" d="m11.45,55.32c2.04-.64,4.09-1.08,6.19-1.48s-2.07.18.14-.01c.43-.04.85-.08,1.28-.11,1.28-.1,2.57-.14,3.85-.13,2.03,0,4.47-.13,6.44.42-2.12-.6-.8-.1-.15,0,.53.09,1.06.18,1.59.29,1.27.25,2.53.54,3.78.87,2.07.55,4.12,1.2,6.12,1.96.4.15.79.31,1.19.47,2.05.79-1.8-.84.18.09,1.14.53,2.27,1.07,3.38,1.66,1.82.97,3.59,2.03,5.31,3.18.93.62,1.84,1.25,2.74,1.91.43.32,1.75,1.16.02,0,.54.37,1.03.82,1.54,1.24,3.5,2.9,6.73,6.11,9.75,9.5,1.42,1.59,2.79,3.23,4.13,4.89.32.4,2.62,3.06.95,1.18.83.93,1.54,2.04,2.28,3.04,5.59,7.6,10.86,15.51,15,24.01.5,1.02.96,2.06,1.44,3.09.98,2.09-.7-1.8.15.34.17.42.34.83.5,1.25.89,2.29,1.68,4.61,2.34,6.97.6,2.13,1.08,4.29,1.45,6.46.09.54.69,2.58.06.23.11.41.11.99.15,1.38.14,1.45.23,2.9.27,4.35.06,2.41,0,4.83-.17,7.24-.09,1.21-.2,2.41-.33,3.62-.05.48-.11.96-.17,1.45-.13,1.04-.12.96.03-.22-.07.48-.14.96-.21,1.45-.74,4.84-1.72,9.65-2.69,14.45-3.46,17.17-6.44,35.31.39,52.11,3.24,7.96,7.89,15.26,14.68,20.66,4.33,3.45,8.82,5.96,13.93,8.07,4.3,1.78,8.74,3.12,13.16,4.53,2.16.69,4.32,1.39,6.45,2.19.53.2,1.05.41,1.58.61,1.58.61-.07-.09-.29-.13,1.02.17,2.19,1,3.12,1.48,1.66.85,3.27,1.78,4.83,2.79.76.49,1.51,1.01,2.24,1.54s1.24,1.52-.11-.11c.32.39.86.69,1.24,1.01,2.84,2.39,5.05,5.2,7.58,7.87-.09-.1-1.32-1.79-.48-.59.3.42.6.83.9,1.25.49.7.96,1.41,1.41,2.13.95,1.51,1.83,3.07,2.64,4.66.39.76.75,1.52,1.11,2.3.17.38.32.8.52,1.16-1.15-2.1-.47-1.16-.22-.5.64,1.67,1.26,3.34,1.79,5.05,1.06,3.42,1.86,6.91,2.42,10.44.07.42.12.84.19,1.26.21,1.24-.28-2.45-.09-.62.09.85.19,1.69.26,2.54.16,1.86.26,3.72.3,5.58.07,3.54-.08,7.08-.43,10.6-.12,1.21-.27,2.41-.4,3.62-.16,1.48.33-2.22-.02.14-.09.6-.17,1.2-.27,1.8-.39,2.53-.83,5.05-1.3,7.57-.95,5.05-2.04,10.07-3.11,15.1-2.21,10.41-4.3,20.88-5.14,31.5-1.31,16.69,1.68,33.27,10.68,47.57,8.69,13.81,21.98,24.64,37.81,29.07,4.3,1.2,8.77,1.85,13.22,2.17,4.71.34,9.21-4.38,9-9-.23-5.17-3.96-8.64-9-9-.82-.06-2.09-.45-2.87-.27l1.26.17c-.37-.05-.75-.11-1.12-.17-.37-.06-.74-.12-1.11-.19-1.99-.37-3.97-.85-5.9-1.45-.86-.27-1.72-.56-2.57-.87-.51-.18-1-.39-1.51-.58-.71-.27-.83-.73.67.29-1.56-1.05-3.55-1.68-5.2-2.62-1.51-.87-2.99-1.82-4.41-2.83-.35-.25-.69-.53-1.05-.77-1.02-.68,1.79,1.45.38.29-.8-.66-1.6-1.32-2.38-2.01-2.65-2.36-4.95-4.99-7.23-7.7-.79-.93,1.37,1.87.32.39-.25-.35-.51-.69-.75-1.04-.49-.7-.97-1.4-1.44-2.12-.97-1.5-1.89-3.03-2.73-4.6-.8-1.49-1.52-3.01-2.23-4.55-.79-1.7.8,2.04.12.3-.12-.31-.25-.62-.37-.93-.36-.93-.7-1.87-1.02-2.82-1.1-3.28-1.86-6.62-2.45-10.02-.3-1.75.2,1.94.09.72-.04-.4-.1-.8-.14-1.19-.1-.96-.17-1.92-.23-2.88-.16-2.65-.19-5.3-.12-7.95.07-2.41.22-4.81.45-7.21.11-1.2.24-2.4.39-3.6.06-.48.1-.97.18-1.44-.4,2.32.07-.37.14-.84.75-4.94,1.71-9.84,2.72-14.73,2.09-10.05,4.4-20.05,5.79-30.23,2.15-15.75,1.74-32.04-4.31-46.96-6.25-15.41-17.27-28.55-32.69-35.4-4.75-2.11-9.63-3.76-14.58-5.32-2.17-.68-4.34-1.37-6.48-2.12-1.06-.37-2.11-.77-3.16-1.18-2.13-.82,1.74.85-.31-.13-.6-.29-1.21-.56-1.8-.85-1.78-.89-3.49-1.9-5.13-3.03-.35-.24-1.29-1.34-.45-.29s-.12-.11-.4-.33c-.84-.7-1.65-1.43-2.43-2.2-.64-.63-1.25-1.28-1.84-1.96-.5-.57-2.06-3-.6-.66-1.02-1.64-2.18-3.16-3.11-4.87-.42-.77-.81-1.54-1.18-2.33-.15-.31-.27-.65-.43-.95,1.2,2.34.34.82.11.22-.66-1.71-1.22-3.45-1.69-5.23s-.81-3.4-1.09-5.13c-.07-.43-.11-.87-.2-1.3.55,2.47.17,1.27.09.57-.11-.96-.19-1.92-.25-2.88-.24-3.63-.16-7.28.18-10.91.11-1.13.2-2.29.39-3.41-.34,2.06-.04.37.03-.15.09-.6.18-1.21.28-1.81.43-2.66.93-5.32,1.45-7.96,2.06-10.47,4.45-20.97,4.87-31.67.4-10.07-1.41-20.16-5.13-29.52s-8.86-18.39-14.7-26.82c-5.35-7.72-11.03-15.36-17.64-22.06-13.83-14.02-32.66-23.63-52.71-23.07-4.93.14-9.93.88-14.64,2.36S-1.16,44.29.38,49.03s6.26,7.8,11.07,6.29h0Z"/>
  <path class="cls-1" d="m49.78,35.38c2.04-.64,4.09-1.08,6.19-1.48s-2.07.18.14-.01c.43-.04.85-.08,1.28-.11,1.28-.1,2.57-.14,3.85-.13,2.03,0,4.47-.13,6.44.42-2.12-.6-.8-.1-.15,0,.53.09,1.06.18,1.59.29,1.27.25,2.53.54,3.78.87,2.07.55,4.12,1.2,6.12,1.96.4.15.79.31,1.19.47,2.05.79-1.8-.84.18.09,1.14.53,2.27,1.07,3.38,1.66,1.82.97,3.59,2.03,5.31,3.18.93.62,1.84,1.25,2.74,1.91.43.32,1.75,1.16.02,0,.54.37,1.03.82,1.54,1.24,3.5,2.9,6.73,6.11,9.75,9.5,1.42,1.59,2.79,3.23,4.13,4.89.32.4,2.62,3.06.95,1.18.83.93,1.54,2.04,2.28,3.04,5.59,7.6,10.86,15.51,15,24.01.5,1.02.96,2.06,1.44,3.09.98,2.09-.7-1.8.15.34.17.42.34.83.5,1.25.89,2.29,1.68,4.61,2.34,6.97.6,2.13,1.08,4.29,1.45,6.46.09.54.69,2.58.06.23.11.41.11.99.15,1.38.14,1.45.23,2.9.27,4.35.06,2.41,0,4.83-.17,7.24-.09,1.21-.2,2.41-.33,3.62-.05.48-.11.96-.17,1.45-.13,1.04-.12.96.03-.22-.07.48-.14.96-.21,1.45-.74,4.84-1.72,9.65-2.69,14.45-3.46,17.17-6.44,35.31.39,52.11,3.24,7.96,7.89,15.26,14.68,20.66,4.33,3.45,8.82,5.96,13.93,8.07,4.3,1.78,8.74,3.12,13.16,4.53,2.16.69,4.32,1.39,6.45,2.19.53.2,1.05.41,1.58.61,1.58.61-.07-.09-.29-.13,1.02.17,2.19,1,3.12,1.48,1.66.85,3.27,1.78,4.83,2.79.76.49,1.51,1.01,2.24,1.54s1.24,1.52-.11-.11c.32.39.86.69,1.24,1.01,2.84,2.39,5.05,5.2,7.58,7.87-.09-.1-1.32-1.79-.48-.59.3.42.6.83.9,1.25.49.7.96,1.41,1.41,2.13.95,1.51,1.83,3.07,2.64,4.66.39.76.75,1.52,1.11,2.3.17.38.32.8.52,1.16-1.15-2.1-.47-1.16-.22-.5.64,1.67,1.26,3.34,1.79,5.05,1.06,3.42,1.86,6.91,2.42,10.44.07.42.12.84.19,1.26.21,1.24-.28-2.45-.09-.62.09.85.19,1.69.26,2.54.16,1.86.26,3.72.3,5.58.07,3.54-.08,7.08-.43,10.6-.12,1.21-.27,2.41-.4,3.62-.16,1.48.33-2.22-.02.14-.09.6-.17,1.2-.27,1.8-.39,2.53-.83,5.05-1.3,7.57-.95,5.05-2.04,10.07-3.11,15.1-2.21,10.41-4.3,20.88-5.14,31.5-1.31,16.69,1.68,33.27,10.68,47.57,8.69,13.81,21.98,24.64,37.81,29.07,4.3,1.2,8.77,1.85,13.22,2.17,4.71.34,9.21-4.38,9-9-.23-5.17-3.96-8.64-9-9-.82-.06-2.09-.45-2.87-.27l1.26.17c-.37-.05-.75-.11-1.12-.17-.37-.06-.74-.12-1.11-.19-1.99-.37-3.97-.85-5.9-1.45-.86-.27-1.72-.56-2.57-.87-.51-.18-1-.39-1.51-.58-.71-.27-.83-.73.67.29-1.56-1.05-3.55-1.68-5.2-2.62-1.51-.87-2.99-1.82-4.41-2.83-.35-.25-.69-.53-1.05-.77-1.02-.68,1.79,1.45.38.29-.8-.66-1.6-1.32-2.38-2.01-2.65-2.36-4.95-4.99-7.23-7.7-.79-.93,1.37,1.87.32.39-.25-.35-.51-.69-.75-1.04-.49-.7-.97-1.4-1.44-2.12-.97-1.5-1.89-3.03-2.73-4.6-.8-1.49-1.52-3.01-2.23-4.55-.79-1.7.8,2.04.12.3-.12-.31-.25-.62-.37-.93-.36-.93-.7-1.87-1.02-2.82-1.1-3.28-1.86-6.62-2.45-10.02-.3-1.75.2,1.94.09.72-.04-.4-.1-.8-.14-1.19-.1-.96-.17-1.92-.23-2.88-.16-2.65-.19-5.3-.12-7.95.07-2.41.22-4.81.45-7.21.11-1.2.24-2.4.39-3.6.06-.48.1-.97.18-1.44-.4,2.32.07-.37.14-.84.75-4.94,1.71-9.84,2.72-14.73,2.09-10.05,4.4-20.05,5.79-30.23,2.15-15.75,1.74-32.04-4.31-46.96s-17.27-28.55-32.69-35.4c-4.75-2.11-9.63-3.76-14.58-5.32-2.17-.68-4.34-1.37-6.48-2.12-1.06-.37-2.11-.77-3.16-1.18-2.13-.82,1.74.85-.31-.13-.6-.29-1.21-.56-1.8-.85-1.78-.89-3.49-1.9-5.13-3.03-.35-.24-1.29-1.34-.45-.29s-.12-.11-.4-.33c-.84-.7-1.65-1.43-2.43-2.2-.64-.63-1.25-1.28-1.84-1.96-.5-.57-2.06-3-.6-.66-1.02-1.64-2.18-3.16-3.11-4.87-.42-.77-.81-1.54-1.18-2.33-.15-.31-.27-.65-.43-.95,1.2,2.34.34.82.11.22-.66-1.71-1.22-3.45-1.69-5.23s-.81-3.4-1.09-5.13c-.07-.43-.11-.87-.2-1.3.55,2.47.17,1.27.09.57-.11-.96-.19-1.92-.25-2.88-.24-3.63-.16-7.28.18-10.91.11-1.13.2-2.29.39-3.41-.34,2.06-.04.37.03-.15.09-.6.18-1.21.28-1.81.43-2.66.93-5.32,1.45-7.96,2.06-10.47,4.45-20.97,4.87-31.67.4-10.07-1.41-20.16-5.13-29.52s-8.86-18.39-14.7-26.82c-5.35-7.72-11.03-15.36-17.64-22.06-13.83-14.02-32.66-23.63-52.71-23.07-4.93.14-9.93.88-14.64,2.36s-7.82,6.33-6.29,11.07,6.26,7.8,11.07,6.29h0Z"/>
  <path class="cls-1" d="m91.32,19.74c2.04-.64,4.09-1.08,6.19-1.48s-2.07.18.14-.01c.43-.04.85-.08,1.28-.11,1.28-.1,2.57-.14,3.85-.13,2.03,0,4.47-.13,6.44.42-2.12-.6-.8-.1-.15,0,.53.09,1.06.18,1.59.29,1.27.25,2.53.54,3.78.87,2.07.55,4.12,1.2,6.12,1.96.4.15.79.31,1.19.47,2.05.79-1.8-.84.18.09,1.14.53,2.27,1.07,3.38,1.66,1.82.97,3.59,2.03,5.31,3.18.93.62,1.84,1.25,2.74,1.91.43.32,1.75,1.16.02,0,.54.37,1.03.82,1.54,1.24,3.5,2.9,6.73,6.11,9.75,9.5,1.42,1.59,2.79,3.23,4.13,4.89.32.4,2.62,3.06.95,1.18.83.93,1.54,2.04,2.28,3.04,5.59,7.6,10.86,15.51,15,24.01.5,1.02.96,2.06,1.44,3.09.98,2.09-.7-1.8.15.34.17.42.34.83.5,1.25.89,2.29,1.68,4.61,2.34,6.97.6,2.13,1.08,4.29,1.45,6.46.09.54.69,2.58.06.23.11.41.11.99.15,1.38.14,1.45.23,2.9.27,4.35.06,2.41,0,4.83-.17,7.24-.09,1.21-.2,2.41-.33,3.62-.05.48-.11.96-.17,1.45-.13,1.04-.12.96.03-.22-.07.48-.14.96-.21,1.45-.74,4.84-1.72,9.65-2.69,14.45-3.46,17.17-6.44,35.31.39,52.11,3.24,7.96,7.89,15.26,14.68,20.66,4.33,3.45,8.82,5.96,13.93,8.07,4.3,1.78,8.74,3.12,13.16,4.53,2.16.69,4.32,1.39,6.45,2.19.53.2,1.05.41,1.58.61,1.58.61-.07-.09-.29-.13,1.02.17,2.19,1,3.12,1.48,1.66.85,3.27,1.78,4.83,2.79.76.49,1.51,1.01,2.24,1.54s1.24,1.52-.11-.11c.32.39.86.69,1.24,1.01,2.84,2.39,5.05,5.2,7.58,7.87-.09-.1-1.32-1.79-.48-.59.3.42.6.83.9,1.25.49.7.96,1.41,1.41,2.13.95,1.51,1.83,3.07,2.64,4.66.39.76.75,1.52,1.11,2.3.17.38.32.8.52,1.16-1.15-2.1-.47-1.16-.22-.5.64,1.67,1.26,3.34,1.79,5.05,1.06,3.42,1.86,6.91,2.42,10.44.07.42.12.84.19,1.26.21,1.24-.28-2.45-.09-.62.09.85.19,1.69.26,2.54.16,1.86.26,3.72.3,5.58.07,3.54-.08,7.08-.43,10.6-.12,1.21-.27,2.41-.4,3.62-.16,1.48.33-2.22-.02.14-.09.6-.17,1.2-.27,1.8-.39,2.53-.83,5.05-1.3,7.57-.95,5.05-2.04,10.07-3.11,15.1-2.21,10.41-4.3,20.88-5.14,31.5-1.31,16.69,1.68,33.27,10.68,47.57,8.69,13.81,21.98,24.64,37.81,29.07,4.3,1.2,8.77,1.85,13.22,2.17,4.71.34,9.21-4.38,9-9-.23-5.17-3.96-8.64-9-9-.82-.06-2.09-.45-2.87-.27l1.26.17c-.37-.05-.75-.11-1.12-.17-.37-.06-.74-.12-1.11-.19-1.99-.37-3.97-.85-5.9-1.45-.86-.27-1.72-.56-2.57-.87-.51-.18-1-.39-1.51-.58-.71-.27-.83-.73.67.29-1.56-1.05-3.55-1.68-5.2-2.62-1.51-.87-2.99-1.82-4.41-2.83-.35-.25-.69-.53-1.05-.77-1.02-.68,1.79,1.45.38.29-.8-.66-1.6-1.32-2.38-2.01-2.65-2.36-4.95-4.99-7.23-7.7-.79-.93,1.37,1.87.32.39-.25-.35-.51-.69-.75-1.04-.49-.7-.97-1.4-1.44-2.12-.97-1.5-1.89-3.03-2.73-4.6-.8-1.49-1.52-3.01-2.23-4.55-.79-1.7.8,2.04.12.3-.12-.31-.25-.62-.37-.93-.36-.93-.7-1.87-1.02-2.82-1.1-3.28-1.86-6.62-2.45-10.02-.3-1.75.2,1.94.09.72-.04-.4-.1-.8-.14-1.19-.1-.96-.17-1.92-.23-2.88-.16-2.65-.19-5.3-.12-7.95.07-2.41.22-4.81.45-7.21.11-1.2.24-2.4.39-3.6.06-.48.1-.97.18-1.44-.4,2.32.07-.37.14-.84.75-4.94,1.71-9.84,2.72-14.73,2.09-10.05,4.4-20.05,5.79-30.23,2.15-15.75,1.74-32.04-4.31-46.96-6.25-15.41-17.27-28.55-32.69-35.4-4.75-2.11-9.63-3.76-14.58-5.32-2.17-.68-4.34-1.37-6.48-2.12-1.06-.37-2.11-.77-3.16-1.18-2.13-.82,1.74.85-.31-.13-.6-.29-1.21-.56-1.8-.85-1.78-.89-3.49-1.9-5.13-3.03-.35-.24-1.29-1.34-.45-.29s-.12-.11-.4-.33c-.84-.7-1.65-1.43-2.43-2.2-.64-.63-1.25-1.28-1.84-1.96-.5-.57-2.06-3-.6-.66-1.02-1.64-2.18-3.16-3.11-4.87-.42-.77-.81-1.54-1.18-2.33-.15-.31-.27-.65-.43-.95,1.2,2.34.34.82.11.22-.66-1.71-1.22-3.45-1.69-5.23s-.81-3.4-1.09-5.13c-.07-.43-.11-.87-.2-1.3.55,2.47.17,1.27.09.57-.11-.96-.19-1.92-.25-2.88-.24-3.63-.16-7.28.18-10.91.11-1.13.2-2.29.39-3.41-.34,2.06-.04.37.03-.15.09-.6.18-1.21.28-1.81.43-2.66.93-5.32,1.45-7.96,2.06-10.47,4.45-20.97,4.87-31.67.4-10.07-1.41-20.16-5.13-29.52-3.8-9.55-8.86-18.39-14.7-26.82-5.35-7.72-11.03-15.36-17.64-22.06C140.05,9.07,121.22-.54,101.17.02c-4.93.14-9.93.88-14.64,2.36s-7.82,6.33-6.29,11.07,6.26,7.8,11.07,6.29h0Z"/>
</svg>