<?xml version="1.0" encoding="UTF-8"?>
<svg id="Layer_1" data-name="Layer 1" xmlns="http://www.w3.org/2000/svg" viewBox="0 0 497.21 451.72">
  <defs>
    <style>
      .cls-1 {
        fill: #939365;
      }

      .cls-2 {
        fill: #8c8c8c;
      }

      .cls-3 {
        fill: #d3d3d3;
      }

      .cls-4 {
        fill: #9e9e9e;
      }

      .cls-5 {
        fill: #cccc92;
      }
    </style>
  </defs>
  <rect class="cls-1" x="-9.03" y="105.84" width="515.27" height="240.04" rx="69.17" ry="69.17" transform="translate(193.42 -105.46) rotate(38.29)"/>
  <path class="cls-4" d="m270.37,115.53l156.5,123.55c32.2,25.42,37.7,72.14,12.28,104.34l-32,40.53c-25.42,32.2-72.14,37.7-104.34,12.28l-102.67-81.05"/>
  <g>
    <path class="cls-3" d="m221.1,113.88s129.4,56.78,224.25,173.4c0,0-136.69-49.83-224.25-173.4Z"/>
    <path class="cls-3" d="m228.92,120.05l-19.11-42.31s10.52,39.7-25.73,32.59l44.84,9.72Z"/>
    <circle class="cls-2" cx="405.51" cy="250.38" r="2.85"/>
  </g>
  <g>
    <path class="cls-3" d="m192.5,163.89s129.4,56.78,224.25,173.4c0,0-136.69-49.83-224.25-173.4Z"/>
    <path class="cls-3" d="m200.33,170.07l-19.11-42.31s10.52,39.7-25.73,32.59l44.84,9.72Z"/>
    <circle class="cls-2" cx="376.92" cy="300.4" r="2.85"/>
  </g>
  <g>
    <path class="cls-3" d="m155.9,214.85s129.4,56.78,224.25,173.4c0,0-136.69-49.83-224.25-173.4Z"/>
    <path class="cls-3" d="m163.73,221.03l-19.11-42.31s10.52,39.7-25.73,32.59l44.84,9.72Z"/>
    <circle class="cls-2" cx="340.32" cy="351.36" r="2.85"/>
  </g>
  <g>
    <path class="cls-3" d="m369.86,343.83s-85.27-112.68-220.72-177.87c0,0,80.21,121.39,220.72,177.87Z"/>
    <path class="cls-3" d="m362.03,337.65l45.59,8.77s-41.05-1.02-25.73,32.59l-19.86-41.36Z"/>
    <circle class="cls-2" cx="194.27" cy="196.14" r="2.85"/>
  </g>
  <g>
    <path class="cls-3" d="m297.48,366.54s-85.27-112.68-220.72-177.87c0,0,80.21,121.39,220.72,177.87Z"/>
    <path class="cls-3" d="m289.66,360.36l45.59,8.77s-41.05-1.02-25.73,32.59l-19.86-41.36Z"/>
    <circle class="cls-2" cx="121.89" cy="218.85" r="2.85"/>
  </g>
  <g>
    <path class="cls-3" d="m406.46,292.87s-85.27-112.68-220.72-177.87c0,0,80.21,121.39,220.72,177.87Z"/>
    <path class="cls-3" d="m398.63,286.69l45.59,8.77s-41.05-1.02-25.73,32.59l-19.86-41.36Z"/>
    <circle class="cls-2" cx="230.87" cy="145.18" r="2.85"/>
  </g>
  <path class="cls-5" d="m309,105.34s21.35-77.29-8.58-88.84c-29.92-11.55-187.2,88.16-163.05,150.27,24.15,62.12,83.13,164.65,83.13,164.65,0,0,43.42,27.9,88.5-226.08Z"/>
  <path class="cls-5" d="m220.68,331.55l-156.5-123.55c-32.2-25.42-37.7-72.14-12.28-104.34l32-40.53c25.42-32.2,72.14-37.7,104.34-12.28l102.67,81.05"/>
</svg>