<?xml version="1.0" encoding="UTF-8"?>
<svg id="Layer_1" data-name="Layer 1" xmlns="http://www.w3.org/2000/svg" viewBox="0 0 448.63 483.93">
  <defs>
    <style>
      .cls-1 {
        fill: #e4ff22;
      }

      .cls-2 {
        fill: #ff4310;
      }

      .cls-3 {
        fill: #ffc524;
      }

      .cls-4 {
        fill: #1f9213;
        opacity: .24;
      }
    </style>
  </defs>
  <path class="cls-2" d="m350.03,0c116.15,96.66,131.96,269.17,35.3,385.33C288.67,501.48,116.15,517.28,0,420.62"/>
  <path class="cls-3" d="m315.2,37.99c95.52,79.49,108.52,221.37,29.03,316.89-79.49,95.52-221.37,108.52-316.89,29.03"/>
  <path class="cls-4" d="m287.19,74.4c74.43,61.94,84.56,172.48,22.62,246.91-61.94,74.43-172.48,84.56-246.91,22.62"/>
  <path class="cls-1" d="m185.08,317.89s9.19,97.37,44.46,77c35.27-20.36-44.46-77-44.46-77Z"/>
  <path class="cls-1" d="m288.45,190.24s64.61,73.42,81.2,36.23c16.59-37.19-81.2-36.23-81.2-36.23Z"/>
  <path class="cls-1" d="m251.94,269.25s42.54,88.06,68.51,56.68c25.96-31.38-68.51-56.68-68.51-56.68Z"/>
</svg>