<?xml version="1.0" encoding="UTF-8"?>
<svg id="Layer_1" data-name="Layer 1" xmlns="http://www.w3.org/2000/svg" viewBox="0 0 155.06 484.24">
  <defs>
    <style>
      .cls-1 {
        fill: #b7b7b7;
      }

      .cls-2 {
        fill: #ddd;
      }

      .cls-3 {
        fill: #eded62;
      }

      .cls-4 {
        fill: #f9ff88;
      }
    </style>
  </defs>
  <path class="cls-2" d="m63.75,0h27.56C100.54,0,108.03,7.49,108.03,16.72v186.48c0,7.8-6.33,14.13-14.13,14.13h-32.74c-7.8,0-14.13-6.33-14.13-14.13V16.72C47.03,7.49,54.52,0,63.75,0Z"/>
  <path class="cls-2" d="m42.5,175.39h70.06c23.46,0,42.5,19.04,42.5,42.5v246.02c0,11.22-9.11,20.32-20.32,20.32H20.32C9.11,484.24,0,475.13,0,463.92v-246.02C0,194.44,19.04,175.39,42.5,175.39Z"/>
  <path class="cls-4" d="m56.48,247.48h73.73c8.83,0,16,7.17,16,16v187.38c0,10.7-8.69,19.39-19.39,19.39H28.29c-10.7,0-19.39-8.69-19.39-19.39v-155.79c0-26.26,21.32-47.59,47.59-47.59Z"/>
  <path class="cls-3" d="m40.31,373.66h75.87c8.83,0,16,7.17,16,16v49.6c0,10.7-8.69,19.39-19.39,19.39H42.46c-10.7,0-19.39-8.69-19.39-19.39v-48.36c0-9.52,7.73-17.24,17.24-17.24Z"/>
  <ellipse class="cls-1" cx="77.53" cy="11.44" rx="17.79" ry="6.35"/>
</svg>